<?xml version="1.0" standalone="no"?>
<!DOCTYPE svg PUBLIC "-//W3C//DTD SVG 20010904//EN"
 "http://www.w3.org/TR/2001/REC-SVG-20010904/DTD/svg10.dtd">
<svg version="1.0" xmlns="http://www.w3.org/2000/svg"
 width="512.000000pt" height="512.000000pt" viewBox="0 0 512.000000 512.000000"
 preserveAspectRatio="xMidYMid meet">
<metadata>
Created by potrace 1.14, written by Peter Selinger 2001-2017
</metadata>
<g transform="translate(0.000000,512.000000) scale(0.100000,-0.100000)"
fill="#000000" stroke="none">
<path d="M2968 5086 c-95 -20 -210 -113 -254 -205 -86 -180 73 -396 362 -493
99 -33 258 -33 326 1 141 69 196 237 125 377 -35 69 -63 97 -204 197 -176 126
-238 147 -355 123z"/>
<path d="M1982 4654 c-31 -21 -28 -57 12 -179 170 -508 494 -811 976 -917 93
-20 133 -22 345 -23 185 0 264 4 346 18 253 43 527 120 578 162 39 33 65 103
57 149 -8 43 -167 311 -207 348 -33 32 -97 51 -136 42 -15 -4 -71 -31 -123
-60 -259 -145 -542 -196 -816 -149 -297 52 -624 245 -863 510 -111 123 -124
131 -169 99z"/>
<path d="M1305 3816 c-318 -62 -627 -218 -830 -421 -115 -115 -159 -193 -160
-280 0 -52 5 -69 35 -120 19 -32 75 -100 123 -151 139 -147 172 -148 329 -17
200 167 422 296 588 343 293 82 535 -15 557 -225 9 -83 -18 -148 -91 -221
-113 -112 -257 -162 -506 -173 -202 -9 -230 -25 -230 -129 0 -128 58 -412 96
-470 28 -43 71 -53 169 -40 211 27 393 -42 490 -188 62 -91 80 -158 80 -294 0
-191 -43 -285 -185 -407 -94 -82 -223 -151 -330 -179 -93 -24 -252 -22 -361 4
-249 60 -493 215 -762 484 -142 142 -149 148 -188 148 -51 0 -94 -25 -110 -62
-17 -41 -5 -173 26 -288 102 -376 376 -690 781 -894 275 -139 557 -207 858
-207 516 1 830 207 969 636 51 158 62 235 62 445 -1 187 -7 240 -41 358 l-7
24 179 -7 c149 -6 193 -4 259 10 242 51 401 188 537 460 20 39 72 162 118 275
128 321 192 426 305 502 131 88 258 78 359 -28 133 -139 216 -445 203 -749
-18 -390 -142 -703 -366 -926 -241 -239 -504 -247 -836 -24 -126 84 -148 92
-198 72 -79 -34 -91 -107 -32 -214 168 -309 382 -502 645 -585 65 -20 95 -23
220 -22 127 0 156 4 230 26 300 92 495 256 637 534 126 246 183 508 183 837 0
258 -28 443 -100 660 -160 478 -456 773 -865 858 -90 19 -259 17 -325 -3 -123
-38 -256 -144 -355 -282 -68 -95 -148 -240 -240 -437 -185 -391 -251 -504
-347 -596 -75 -70 -128 -95 -214 -101 -39 -2 -78 -1 -87 4 -8 5 -36 50 -62 99
-122 234 -228 350 -420 460 l-74 42 84 108 c101 131 167 244 202 350 23 69 27
97 27 205 1 150 -14 212 -83 355 -108 224 -273 367 -496 430 -81 23 -353 30
-450 11z"/>
</g>
</svg>
